<?xml version="1.0" encoding="UTF-8" standalone="no"?>
<!-- Created with Inkscape (http://www.inkscape.org/) -->

<svg
   xmlns:dc="http://purl.org/dc/elements/1.1/"
   xmlns:cc="http://creativecommons.org/ns#"
   xmlns:rdf="http://www.w3.org/1999/02/22-rdf-syntax-ns#"
   xmlns:svg="http://www.w3.org/2000/svg"
   xmlns="http://www.w3.org/2000/svg"
   xmlns:sodipodi="http://sodipodi.sourceforge.net/DTD/sodipodi-0.dtd"
   xmlns:inkscape="http://www.inkscape.org/namespaces/inkscape"
   width="55.236008mm"
   height="61.524124mm"
   viewBox="0 0 55.236008 61.524124"
   version="1.1"
   id="svg7018"
   sodipodi:docname="favicon.svg"
   inkscape:export-filename="/home/user/Developer/active/r3think/design/transparent-favicon.png"
   inkscape:export-xdpi="181.42857"
   inkscape:export-ydpi="181.42857"
   inkscape:version="0.92.5 (2060ec1f9f, 2020-04-08)">
  <defs
     id="defs7012" />
  <sodipodi:namedview
     id="base"
     pagecolor="#ffffff"
     bordercolor="#666666"
     borderopacity="1.0"
     inkscape:pageopacity="0.0"
     inkscape:pageshadow="2"
     inkscape:zoom="2.8"
     inkscape:cx="101.143"
     inkscape:cy="111.32002"
     inkscape:document-units="mm"
     inkscape:current-layer="layer1"
     showgrid="false"
     inkscape:window-width="1848"
     inkscape:window-height="1016"
     inkscape:window-x="72"
     inkscape:window-y="27"
     inkscape:window-maximized="1" />
  <metadata
     id="metadata7015">
    <rdf:RDF>
      <cc:Work
         rdf:about="">
        <dc:format>image/svg+xml</dc:format>
        <dc:type
           rdf:resource="http://purl.org/dc/dcmitype/StillImage" />
      </cc:Work>
    </rdf:RDF>
  </metadata>
  <g
     inkscape:groupmode="layer"
     id="layer4"
     inkscape:label="back"
     transform="translate(-57.372597,-51.152425)" />
  <g
     inkscape:label="Layer 1"
     inkscape:groupmode="layer"
     id="layer1"
     transform="translate(-57.372597,-51.152425)">
    <path
       style="opacity:1;fill:#f25430;fill-opacity:1;stroke:#f25430;stroke-width:0.00931923;stroke-miterlimit:4;stroke-dasharray:none;stroke-opacity:1"
       d="m 83.036256,84.419137 c -0.07495,0.03664 -0.133991,0.104602 -0.203204,0.152312 -1.352065,1.080834 -2.704337,2.161458 -4.051626,3.248224 -0.0643,0.04138 0.02219,0.08161 0.05243,0.110836 0.483127,0.406293 0.999407,0.770611 1.503747,1.149621 0.56051,0.413705 1.118969,0.830352 1.683456,1.238592 0.0511,0.0074 0.03464,-0.06802 0.04962,-0.09845 0.214636,-1.176529 0.40801,-2.356831 0.611866,-3.535266 0.127221,-0.74646 0.255349,-1.492764 0.381197,-2.239454 0.0027,-0.01554 -0.0127,-0.02871 -0.02748,-0.02642 z"
       id="path5309"
       inkscape:connector-curvature="0" />
    <path
       style="opacity:1;fill:#f25430;fill-opacity:1;stroke:#f25430;stroke-width:0.01031888;stroke-miterlimit:4;stroke-dasharray:none;stroke-opacity:1"
       d="m 71.778973,83.753601 c -0.0911,0.04946 -0.166629,0.12839 -0.252379,0.187881 -1.305238,1.013599 -2.610897,2.026684 -3.916047,3.0404 -0.02425,0.04964 0.04941,0.08713 0.0663,0.130536 0.52844,0.713516 1.055964,1.427837 1.591665,2.135887 0.01317,0.03275 0.06295,0.05691 0.07441,0.01044 0.770639,-1.684975 1.529495,-3.375342 2.288051,-5.065791 0.06,-0.136262 0.122888,-0.27138 0.179916,-0.408882 0.0018,-0.01986 -0.01275,-0.03335 -0.03194,-0.03046 z"
       id="path5311"
       inkscape:connector-curvature="0" />
    <path
       style="opacity:1;fill:#f25430;fill-opacity:1;stroke:#f25430;stroke-width:0.01069575;stroke-miterlimit:4;stroke-dasharray:none;stroke-opacity:1"
       d="m 63.966151,73.444528 c -0.06114,0.05939 -0.08641,0.149773 -0.131537,0.221709 -0.72586,1.425951 -1.435345,2.860194 -2.150973,4.291304 -0.02633,0.06644 -0.07623,0.127984 -0.08872,0.197505 0.03039,0.0515 0.08798,-0.01951 0.124304,-0.03008 1.333184,-0.760756 2.665845,-1.522582 3.995,-2.290368 0.03491,-0.04126 -0.02765,-0.08836 -0.0435,-0.12557 -0.516653,-0.72928 -1.056565,-1.441842 -1.595987,-2.154361 -0.03678,-0.03103 -0.05667,-0.106744 -0.108586,-0.110132 z"
       id="path5313"
       inkscape:connector-curvature="0" />
    <path
       style="opacity:1;fill:#f25430;fill-opacity:1;stroke:#f25430;stroke-width:0.00920423;stroke-miterlimit:4;stroke-dasharray:none;stroke-opacity:1"
       d="m 58.93806,67.873364 c 0.0453,-0.06411 0.06387,-0.146827 0.09922,-0.21769 0.408223,-0.975539 0.817739,-1.950866 1.187373,-2.941877 0.06866,-0.1848 0.143402,-0.368038 0.208041,-0.553924 -0.0093,-0.04517 -0.06255,-0.01538 -0.07668,0.01097 -0.917882,0.888176 -1.831201,1.781125 -2.739669,2.67892 -0.02813,0.01667 -0.05242,0.0591 -0.01171,0.07604 0.436731,0.318526 0.874241,0.636294 1.316595,0.946877 l 0.0092,3.62e-4 z"
       id="path5317"
       inkscape:connector-curvature="0" />
    <path
       style="opacity:1;fill:#f25430;fill-opacity:1;stroke:#f25430;stroke-width:0.01375619;stroke-miterlimit:4;stroke-dasharray:none;stroke-opacity:1"
       d="m 63.506182,51.327027 c -0.929925,0.09923 -1.857661,0.219543 -2.785762,0.334286 -0.03926,0.0018 -0.127844,0.02434 -0.07991,0.07737 1.103094,0.684301 2.22327,1.340926 3.337011,2.007803 0.195684,0.111539 0.385214,0.2382 0.585011,0.340152 0.07263,-0.02154 0.0018,-0.108349 -0.0067,-0.152365 -0.358051,-0.855063 -0.670299,-1.729141 -1.013661,-2.59065 -0.01198,-0.006 -0.02085,-0.02055 -0.03595,-0.01659 z"
       id="path5319"
       inkscape:connector-curvature="0" />
    <path
       style="opacity:1;fill:#f25430;fill-opacity:1;stroke:#f25430;stroke-width:0.01144805;stroke-miterlimit:4;stroke-dasharray:none;stroke-opacity:1"
       d="m 69.973873,58.061639 c -0.02928,0.05134 0.05078,0.08725 0.07333,0.12637 1.66386,1.694515 3.323054,3.393927 4.993432,5.082114 0.01727,0.03456 0.07953,0.06103 0.08659,0.006 0.03284,-0.367507 0.03241,-0.737587 0.05003,-1.106159 0.03133,-0.93975 0.07399,-1.879212 0.100894,-2.819046 -0.03816,-0.04892 -0.119122,-0.03763 -0.174519,-0.06158 -1.70213,-0.415101 -3.404504,-0.829612 -5.109429,-1.232957 l -0.01109,0.0029 z"
       id="path5321"
       inkscape:connector-curvature="0" />
    <path
       style="opacity:1;fill:#f25430;fill-opacity:1;stroke:#f25430;stroke-width:0.01142724;stroke-miterlimit:4;stroke-dasharray:none;stroke-opacity:1"
       d="m 83.052587,51.664211 c -0.723981,0.0032 -1.448298,-0.004 -2.172047,0.01115 -0.05362,0.02572 0.01411,0.07005 0.04325,0.08066 1.676502,0.994121 3.35854,1.978879 5.04254,2.960213 0.06534,0.02293 0.05274,-0.07581 0.06512,-0.112032 0.172731,-0.967715 0.349293,-1.935187 0.521612,-2.903129 -0.01792,-0.06104 -0.105539,-0.01839 -0.152795,-0.03225 -1.115875,-0.0054 -2.231799,-0.0046 -3.34769,-0.0046 z"
       id="path5323"
       inkscape:connector-curvature="0" />
    <path
       style="opacity:1;fill:#f25430;fill-opacity:1;stroke:#f25430;stroke-width:0.01665429;stroke-miterlimit:4;stroke-dasharray:none;stroke-opacity:1"
       d="m 108.79475,74.699699 c -0.24342,0.375355 -0.45492,0.773337 -0.68213,1.159582 -0.85852,1.495055 -1.66072,3.02131 -2.47349,4.541455 -0.003,0.09306 0.13649,0.06033 0.1988,0.08051 1.21094,0.121033 2.42334,0.228692 3.63441,0.34753 0.0805,-0.03572 0.0156,-0.148561 0.0236,-0.213913 -0.20964,-1.949656 -0.40746,-3.900744 -0.62193,-5.849779 -0.006,-0.0367 -0.0322,-0.08924 -0.0792,-0.06539 z"
       id="path5331"
       inkscape:connector-curvature="0" />
    <path
       style="opacity:1;fill:#f25430;fill-opacity:1;stroke:#f25430;stroke-width:0.01374313;stroke-miterlimit:4;stroke-dasharray:none;stroke-opacity:1"
       d="m 96.14247,78.973675 c -0.06928,0.02351 -0.05548,0.123495 -0.08644,0.178818 -0.569308,1.886009 -1.129601,3.774614 -1.699573,5.660364 -0.0641,0.216192 -0.130329,0.431797 -0.191728,0.648758 0.02341,0.07533 0.118545,0.106158 0.168807,0.164086 1.280155,1.04653 2.565056,2.08745 3.858196,3.11789 0.0745,0.03059 0.0616,-0.07924 0.0436,-0.116948 -0.515927,-2.517338 -1.028652,-5.035432 -1.586137,-7.543977 -0.154262,-0.695037 -0.303931,-1.391271 -0.464831,-2.084807 -0.007,-0.01651 -0.02417,-0.0266 -0.0419,-0.02419 z"
       id="path5333"
       inkscape:connector-curvature="0" />
    <path
       style="opacity:1;fill:#f25430;fill-opacity:1;stroke:#f25430;stroke-width:0.01224361;stroke-miterlimit:4;stroke-dasharray:none;stroke-opacity:1"
       d="m 88.666572,82.554467 c -0.377586,0.746784 -0.740474,1.502139 -1.111386,2.252716 -0.859137,1.754339 -1.721947,3.506915 -2.57497,5.264222 -0.0097,0.06407 0.07139,0.04183 0.09192,0.0064 1.607456,-1.332613 3.204263,-2.678025 4.800186,-4.024422 0.13825,-0.120389 0.283046,-0.233671 0.415545,-0.360443 0.01111,-0.07201 -0.06076,-0.137686 -0.08359,-0.206874 -0.498886,-0.97547 -0.989155,-1.955503 -1.496964,-2.926299 -0.01348,-0.01228 -0.02466,-0.01315 -0.04075,-0.0052 z"
       id="path5335"
       inkscape:connector-curvature="0" />
    <path
       style="opacity:1;fill:#f25430;fill-opacity:1;stroke:#f25430;stroke-width:0.01528198;stroke-miterlimit:4;stroke-dasharray:none;stroke-opacity:1"
       d="m 94.576088,95.834238 c -0.0869,0.01347 -0.02324,0.122518 -0.02559,0.17843 0.244418,1.299861 0.520278,2.593811 0.81067,3.884115 0.01245,0.0451 0.01928,0.160907 0.09012,0.106817 0.884461,-1.344231 1.749662,-2.701092 2.624204,-4.05183 0.0119,-0.08623 -0.11279,-0.04777 -0.16725,-0.05979 -1.110621,-0.0239 -2.221383,-0.04472 -3.332174,-0.0577 z"
       id="path5337"
       inkscape:connector-curvature="0" />
    <path
       style="opacity:1;fill:#f25430;fill-opacity:1;stroke:#f25430;stroke-width:0.01203177;stroke-miterlimit:4;stroke-dasharray:none;stroke-opacity:1"
       d="m 106.37483,101.18671 c -0.37837,1.18197 -0.74048,2.36953 -1.10975,3.55451 -0.21985,0.71374 -0.44377,1.42631 -0.65821,2.14168 0.0108,0.0689 0.0889,0.007 0.12495,-0.005 1.42286,-0.72802 2.84613,-1.45536 4.26783,-2.18566 0.0403,-0.0489 -0.0428,-0.0931 -0.0597,-0.13734 -0.83207,-1.12446 -1.6672,-2.24675 -2.51291,-3.36098 -0.0108,-0.0192 -0.0369,-0.0252 -0.0522,-0.007 z"
       id="path5339"
       inkscape:connector-curvature="0" />
    <path
       style="opacity:1;fill:#f25430;fill-opacity:1;stroke:#f25430;stroke-width:0.01698975;stroke-miterlimit:4;stroke-dasharray:none;stroke-opacity:1"
       d="m 101.18771,109.51091 c -2.096484,0.79962 -4.199354,1.58292 -6.289175,2.3998 -0.07142,0.045 0.01849,0.1066 0.07286,0.0883 1.961713,0.0584 3.924164,0.0921 5.886155,0.14053 1.21295,0.0268 2.42651,0.0585 3.63901,0.0849 0.0798,-0.0532 -0.0364,-0.11545 -0.0756,-0.15063 -1.06277,-0.85538 -2.13021,-1.70494 -3.19564,-2.55708 -0.0122,6.9e-4 -0.0251,-0.0123 -0.0377,-0.005 z"
       id="path5341"
       inkscape:connector-curvature="0" />
    <path
       style="opacity:1;fill:#f25430;fill-opacity:1;stroke:#f25430;stroke-width:0.01407545;stroke-miterlimit:4;stroke-dasharray:none;stroke-opacity:1"
       d="m 86.585738,99.256756 c -0.08069,0.0182 -0.0068,0.1064 0.01907,0.14227 1.830546,2.755644 3.661834,5.510864 5.508871,8.255504 0.110782,0.15459 0.20718,0.32255 0.32851,0.46806 0.08979,-0.0132 0.15852,-0.0939 0.239691,-0.13351 0.263476,-0.16972 0.528368,-0.3374 0.788749,-0.51181 0.03593,-0.0634 -0.06011,-0.11037 -0.0845,-0.16284 -1.432293,-1.74277 -2.889136,-3.46527 -4.340206,-5.19237 -0.804193,-0.94909 -1.599295,-1.90624 -2.418012,-2.842874 -0.01124,-0.0122 -0.0236,-0.0251 -0.04217,-0.0224 z"
       id="path5343"
       inkscape:connector-curvature="0" />
    <path
       style="opacity:1;fill:#f25430;fill-opacity:1;stroke:#f25430;stroke-width:0.01218204;stroke-miterlimit:4;stroke-dasharray:none;stroke-opacity:1"
       d="m 74.850998,97.17192 c -0.06516,0.01767 -0.04802,0.111799 -0.07387,0.161728 -0.401799,1.543891 -0.792003,3.090732 -1.187354,4.636302 0.03497,0.0793 0.12375,0.13026 0.179491,0.19859 0.255402,0.25206 0.503924,0.51183 0.766594,0.75612 0.07451,0.0127 0.04601,-0.0932 0.05527,-0.1352 0.09688,-1.86317 0.204319,-3.725854 0.292766,-5.589418 -0.0066,-0.016 -0.01298,-0.02994 -0.03291,-0.02812 z"
       id="path5345"
       inkscape:connector-curvature="0" />
    <path
       style="opacity:1;fill:#f25430;fill-opacity:1;stroke:#f25430;stroke-width:0.01321126;stroke-miterlimit:4;stroke-dasharray:none;stroke-opacity:1"
       d="m 68.471811,110.0236 c -0.04138,0.0543 0.04424,0.10765 0.06165,0.15933 0.534113,0.82793 1.065889,1.65757 1.611673,2.47783 0.08586,0.0265 0.185852,-0.0139 0.277156,-0.0134 1.004413,-0.10603 2.01006,-0.20361 3.013454,-0.3174 0.0586,-0.0271 -0.0015,-0.0867 -0.04304,-0.0909 -1.629816,-0.7443 -3.261299,-1.48518 -4.896678,-2.21712 l -0.01318,6.8e-4 z"
       id="path5351"
       inkscape:connector-curvature="0" />
    <path
       style="opacity:1;fill:#f25430;fill-opacity:1;stroke:#f25430;stroke-width:0.02245211;stroke-miterlimit:4;stroke-dasharray:none;stroke-opacity:1"
       d="m 104.86788,73.640435 c -0.42093,0.261091 -0.82225,0.559183 -1.24264,0.82387 -0.58623,0.384405 -1.1774,0.761231 -1.76581,1.142309 -0.04,0.08928 0.0887,0.167749 0.11759,0.25081 0.85578,1.301454 1.70942,2.604557 2.57776,3.897616 0.0222,0.04304 0.10518,0.159997 0.13635,0.06394 0.0824,-1.499427 0.10668,-3.001671 0.16468,-4.50226 0.0174,-0.547117 0.0386,-1.094176 0.0507,-1.641422 -0.01,-0.01868 -0.0118,-0.03666 -0.0387,-0.03485 z"
       id="path5353"
       inkscape:connector-curvature="0" />
    <path
       style="opacity:1;fill:#f25430;fill-opacity:1;stroke:#f25430;stroke-width:0.00428309;stroke-miterlimit:4;stroke-dasharray:none;stroke-opacity:1"
       d="m 83.335204,80.550661 c -0.675427,0.01858 -1.350752,0.04119 -2.026145,0.06114 -0.967696,0.0299 -1.93543,0.05865 -2.90311,0.08894 -0.04125,0.0043 -0.0852,-0.0021 -0.124608,0.01184 -0.02741,0.0173 -0.0075,0.05556 0.02058,0.05722 0.08476,0.0227 0.167557,0.04749 0.249498,0.07991 0.553916,0.207154 1.103764,0.425189 1.658829,0.629412 0.02456,0.01283 0.05146,0.0117 0.07663,9.93e-4 0.790285,-0.217799 1.580867,-0.434548 2.369849,-0.657019 0.240544,-0.06839 0.479597,-0.141975 0.717868,-0.217837 0.02935,-0.01157 0.01719,-0.05713 -0.01332,-0.0544 -0.0087,-4.93e-4 -0.01737,-3.29e-4 -0.02607,-3.29e-4 z"
       id="path5357"
       inkscape:connector-curvature="0" />
    <path
       style="opacity:1;fill:#f25430;fill-opacity:1;stroke:#f25430;stroke-width:0.01423468;stroke-miterlimit:4;stroke-dasharray:none;stroke-opacity:1"
       d="m 74.612986,67.214092 c -0.201841,0.304611 -0.375118,0.629542 -0.562874,0.94373 -0.45541,0.792384 -0.920232,1.579836 -1.35706,2.382599 -0.02048,0.06088 0.0637,0.06961 0.09287,0.02927 0.688325,-0.441261 1.374614,-0.886244 2.051393,-1.344975 0.03182,-0.08326 -0.0065,-0.181995 -0.0033,-0.270633 -0.04978,-0.5655 -0.08897,-1.132637 -0.162216,-1.695617 -0.0033,-0.02925 -0.02445,-0.06284 -0.05903,-0.04437 z"
       id="path5359"
       inkscape:connector-curvature="0" />
    <path
       style="opacity:1;fill:#f25430;fill-opacity:1;stroke:#f25430;stroke-width:0.01067165;stroke-miterlimit:4;stroke-dasharray:none;stroke-opacity:1"
       d="m 62.898813,65.742875 c -0.06454,0.04689 -0.100691,0.128335 -0.153325,0.188345 -0.698284,0.958666 -1.387984,1.923528 -2.094286,2.876211 -0.0147,0.02283 -0.0659,0.08162 -0.01113,0.09038 0.604489,0.09168 1.211705,0.165864 1.817646,0.247761 0.07261,2.42e-4 0.149649,0.03664 0.220596,0.01476 0.03584,-0.03847 0.0119,-0.104869 0.02591,-0.152617 0.07591,-1.051281 0.147997,-2.102909 0.215456,-3.154758 -0.007,-0.02957 0.02148,-0.101342 -0.02087,-0.110073 z"
       id="path5983"
       inkscape:connector-curvature="0" />
    <path
       style="opacity:1;fill:#f25430;fill-opacity:1;stroke:#f25430;stroke-width:0.01459893;stroke-miterlimit:4;stroke-dasharray:none;stroke-opacity:1"
       d="m 61.186504,75.121765 c -0.140032,0.09725 -0.270352,0.218366 -0.388696,0.338741 -0.329033,0.253162 -0.636517,0.536223 -0.953999,0.804603 -0.702389,0.610181 -1.413203,1.212116 -2.107928,1.830218 0.03335,0.193833 0.122888,0.376751 0.178719,0.56581 0.203977,0.58825 0.396144,1.181358 0.609537,1.765886 0.04903,0.06144 0.08009,-0.04205 0.09887,-0.07693 0.871494,-1.725121 1.738859,-3.452495 2.593806,-5.185841 0.01141,-0.01995 -0.0083,-0.04606 -0.03031,-0.04249 z"
       id="path5985"
       inkscape:connector-curvature="0" />
    <path
       style="opacity:1;fill:#f25430;fill-opacity:1;stroke:#f25430;stroke-width:0.01315389;stroke-miterlimit:4;stroke-dasharray:none;stroke-opacity:1"
       d="m 58.71618,83.513753 c -0.05474,0.03667 -0.03208,0.125823 -0.05153,0.181573 -0.298097,2.266138 -0.585354,4.533783 -0.872684,6.801315 -0.0093,0.03019 -0.0086,0.109212 0.04232,0.08229 0.684393,-0.48634 1.36604,-0.9769 2.041038,-1.476218 0.04198,-0.02075 0.06972,-0.05987 0.04738,-0.106634 -0.3393,-1.614655 -0.685397,-3.227959 -1.031839,-4.841089 -0.05087,-0.206359 -0.07916,-0.419716 -0.146135,-0.62138 -0.0055,-0.01055 -0.01534,-0.02163 -0.02854,-0.01986 z"
       id="path5987"
       inkscape:connector-curvature="0" />
    <path
       style="opacity:1;fill:#f25430;fill-opacity:1;stroke:#f25430;stroke-width:0.01181191;stroke-miterlimit:4;stroke-dasharray:none;stroke-opacity:1"
       d="m 58.352189,100.7775 c -0.03867,0.0252 -0.02237,0.0938 -0.04183,0.13398 -0.299736,1.37085 -0.594575,2.74282 -0.879458,4.11684 -0.0066,0.0703 -0.04127,0.14483 -0.02434,0.21447 0.06926,0.0276 0.14974,-0.004 0.223068,-2.7e-4 1.606308,-0.0989 3.213451,-0.18415 4.819692,-0.28372 0.03604,-0.0108 0.09352,0.007 0.117126,-0.0286 -0.0571,-0.084 -0.145333,-0.15009 -0.214074,-0.22698 -1.290279,-1.2868 -2.584887,-2.56929 -3.888208,-3.84286 -0.03557,-0.0273 -0.0666,-0.0726 -0.111981,-0.0829 z"
       id="path5989"
       inkscape:connector-curvature="0" />
    <path
       style="opacity:1;fill:#f25430;fill-opacity:1;stroke:#f25430;stroke-width:0.01806827;stroke-miterlimit:4;stroke-dasharray:none;stroke-opacity:1"
       d="m 57.418666,109.95426 c -0.08508,0.0212 0.0027,0.12627 0.0071,0.17485 0.233128,0.65419 0.462186,1.31077 0.713371,1.95791 0.04327,0.10315 0.180421,0.0402 0.264632,0.06 0.894651,0.004 1.7901,0.0115 2.684271,-0.0124 0.07704,-0.0357 -0.01178,-0.10549 -0.05798,-0.11628 -1.169736,-0.68565 -2.342506,-1.36677 -3.520772,-2.03741 -0.02871,-0.0125 -0.05866,-0.0271 -0.09066,-0.0266 z"
       id="path5991"
       inkscape:connector-curvature="0" />
    <path
       style="opacity:1;fill:#f25430;fill-opacity:1;stroke:#f25430;stroke-width:0.01426227;stroke-miterlimit:4;stroke-dasharray:none;stroke-opacity:1"
       d="m 64.705357,108.24678 c -1.261361,0.0585 -2.521145,0.14801 -3.78182,0.21978 -0.66795,0.0454 -1.337918,0.0682 -2.004204,0.13428 -0.03702,-0.003 -0.118779,0.0291 -0.06596,0.0696 0.335781,0.23998 0.706161,0.42696 1.061859,0.63521 0.657596,0.36853 1.317239,0.73587 1.979931,1.09376 0.09761,-0.009 0.163262,-0.10443 0.245539,-0.1491 0.863548,-0.6361 1.738507,-1.25705 2.59223,-1.9063 0.02024,-0.0239 0.105316,-0.0636 0.05819,-0.096 -0.02837,-0.003 -0.05727,-9.2e-4 -0.08576,-9.2e-4 z"
       id="path5993"
       inkscape:connector-curvature="0" />
    <path
       style="opacity:1;fill:#f25430;fill-opacity:1;stroke:#f25430;stroke-width:0.02595139;stroke-miterlimit:4;stroke-dasharray:none;stroke-opacity:1"
       d="m 70.440593,68.516503 c -0.123004,0.08819 -0.117722,0.281406 -0.187082,0.407163 -0.484332,1.386679 -0.989667,2.769507 -1.460933,4.158608 0.06654,0.04384 0.129152,-0.09141 0.181706,-0.121599 0.599671,-0.652612 1.200574,-1.305627 1.77352,-1.981781 0.105359,-0.13349 -0.0064,-0.315884 0.003,-0.467276 -0.08852,-0.651124 -0.15572,-1.307107 -0.263224,-1.954567 -0.0077,-0.01962 -0.02256,-0.04333 -0.04694,-0.04055 z"
       id="path5995"
       inkscape:connector-curvature="0" />
    <path
       style="opacity:1;fill:#f25430;fill-opacity:1;stroke:#f25430;stroke-width:0.02241714;stroke-miterlimit:4;stroke-dasharray:none;stroke-opacity:1"
       d="m 60.949105,53.99436 c -0.01952,0.105807 0.04705,0.230558 0.05856,0.342129 0.275448,1.181463 0.53615,2.367173 0.848767,3.53945 0.01478,0.11701 0.09579,-0.01485 0.12798,-0.05135 0.575062,-0.70666 1.166316,-1.401726 1.708782,-2.133961 0.0848,-0.08297 -0.08232,-0.113634 -0.124521,-0.159504 -0.863699,-0.52351 -1.727868,-1.048417 -2.612079,-1.53623 -0.0025,-6.22e-4 -0.005,-0.001 -0.0075,-5.26e-4 z"
       id="path5997"
       inkscape:connector-curvature="0" />
    <path
       style="opacity:1;fill:#ff5833;fill-opacity:1;stroke:#ff5833;stroke-width:0.0340546;stroke-miterlimit:4;stroke-dasharray:none;stroke-opacity:1"
       d="m 58.680945,52.358736 c -0.180504,0.265654 -0.246614,0.604392 -0.366191,0.903059 -0.110231,0.335166 -0.226111,0.672128 -0.317495,1.011048 0.655244,1.12301 1.286573,2.261445 1.954082,3.376395 0.0611,0.09552 0.166487,8e-4 0.103291,-0.0856 -0.428197,-1.705224 -0.830842,-3.418103 -1.311568,-5.109387 -0.01734,-0.02793 -0.01707,-0.09768 -0.06213,-0.09551 z"
       id="path5999"
       inkscape:connector-curvature="0" />
    <path
       style="opacity:1;fill:#ff5833;fill-opacity:1;stroke:#ff5833;stroke-width:0.02375622;stroke-miterlimit:4;stroke-dasharray:none;stroke-opacity:1"
       d="m 58.269826,70.735567 c -0.07085,0.07477 -0.05555,0.218724 -0.09668,0.315937 -0.263358,1.146069 -0.536568,2.291151 -0.776451,3.441814 0.0487,0.09667 0.143859,-0.06966 0.19803,-0.0889 1.246286,-1.04992 2.496527,-2.09566 3.726479,-3.164588 0.03497,-0.03153 0.141989,-0.121832 0.05136,-0.149729 -1.010627,-0.132628 -2.023873,-0.251299 -3.03829,-0.351937 -0.02145,-0.0012 -0.04294,-0.0033 -0.06445,-0.0027 z"
       id="path6001"
       inkscape:connector-curvature="0" />
    <path
       style="opacity:1;fill:#ff5833;fill-opacity:1;stroke:#ff5833;stroke-width:0.02573063;stroke-miterlimit:4;stroke-dasharray:none;stroke-opacity:1"
       d="m 60.314573,92.200542 c -0.885634,0.591682 -1.744578,1.224836 -2.603819,1.854767 -0.05209,0.04639 -0.169058,0.08936 -0.102119,0.176095 0.317035,0.72666 0.628694,1.456853 0.972388,2.171324 0.01745,0.05564 0.100712,0.146837 0.122159,0.0391 0.55542,-1.381696 1.100203,-2.768049 1.64024,-4.155897 0.01871,-0.02803 0.01933,-0.09132 -0.02885,-0.08539 z"
       id="path6003"
       inkscape:connector-curvature="0" />
    <path
       style="opacity:1;fill:#ff5833;fill-opacity:1;stroke:#ff5833;stroke-width:0.02828343;stroke-miterlimit:4;stroke-dasharray:none;stroke-opacity:1"
       d="m 61.229423,93.176226 c -0.111558,0.06206 -0.111798,0.235035 -0.17754,0.336785 -0.565214,1.430473 -1.145996,2.855225 -1.707562,4.286894 0.02095,0.124008 0.182788,-0.01267 0.252725,-0.01502 0.720578,-0.266077 1.455626,-0.498765 2.161643,-0.801269 0.04707,-0.120771 -0.02327,-0.27649 -0.02028,-0.407931 -0.145316,-1.118671 -0.280682,-2.240078 -0.450339,-3.354817 -0.0099,-0.02311 -0.03124,-0.04693 -0.05866,-0.04463 z"
       id="path6005"
       inkscape:connector-curvature="0" />
    <path
       style="opacity:1;fill:#b33e24;fill-opacity:1;stroke:#b33e24;stroke-width:0.03581507;stroke-miterlimit:4;stroke-dasharray:none;stroke-opacity:1"
       d="m 63.955501,57.534103 c -0.267809,0.224279 -0.456502,0.543559 -0.690943,0.804851 -0.702029,0.889341 -1.437881,1.760724 -2.109348,2.669281 0.264965,0.219672 0.61394,0.33542 0.915244,0.504056 0.484462,0.22677 0.960374,0.486795 1.457014,0.679379 0.117732,-0.05702 0.03121,-0.2484 0.07403,-0.353278 0.11375,-1.415905 0.287519,-2.827519 0.401851,-4.24315 0.0012,-0.02935 -0.01092,-0.06748 -0.04784,-0.06114 z"
       id="path6009"
       inkscape:connector-curvature="0" />
    <path
       style="opacity:1;fill:#b33e24;fill-opacity:1;stroke:#b33e24;stroke-width:0.02828818;stroke-miterlimit:4;stroke-dasharray:none;stroke-opacity:1"
       d="m 65.155272,64.454795 c -0.08349,0.06499 -0.0242,0.212341 -0.05736,0.304865 -0.124995,1.402096 -0.263014,2.805255 -0.371168,4.207485 0.07849,0.04221 0.162661,-0.08774 0.233973,-0.113559 1.218488,-0.90038 2.445298,-1.791947 3.624434,-2.743655 0.05152,-0.07884 -0.133091,-0.09526 -0.171884,-0.140779 -1.077314,-0.518833 -2.159524,-1.031981 -3.252535,-1.515075 z"
       id="path6011"
       inkscape:connector-curvature="0" />
    <path
       style="opacity:1;fill:#b33e24;fill-opacity:1;stroke:#b33e24;stroke-width:0.02315108;stroke-miterlimit:4;stroke-dasharray:none;stroke-opacity:1"
       d="m 66.362017,77.542017 c -1.112742,0.621954 -2.213134,1.267681 -3.310588,1.91666 -0.06836,0.05588 -0.179369,0.0851 -0.223433,0.159839 0.307219,0.09942 0.639291,0.137008 0.956904,0.205583 0.353226,0.05729 0.705629,0.144155 1.061398,0.173741 0.142897,-0.08806 0.197985,-0.270868 0.297122,-0.40035 0.408839,-0.681985 0.843383,-1.350243 1.234784,-2.041727 l -0.01488,-0.01392 z"
       id="path6013"
       inkscape:connector-curvature="0" />
    <path
       style="opacity:1;fill:#b33e24;fill-opacity:1;stroke:#b33e24;stroke-width:0.02277757;stroke-miterlimit:4;stroke-dasharray:none;stroke-opacity:1"
       d="m 61.897131,81.251036 c -0.08795,-0.0035 -0.01668,0.08686 0.02127,0.107438 0.830463,0.814816 1.660076,1.631408 2.510775,2.425147 0.01895,0.02581 0.125344,0.10474 0.104911,0.01984 C 64.292894,83.06177 64.074075,82.311355 63.804004,81.579846 63.62612,81.479539 63.40373,81.485066 63.207338,81.43811 62.77123,81.374 62.336065,81.291414 61.897138,81.251042 Z"
       id="path6015"
       inkscape:connector-curvature="0" />
    <path
       style="opacity:1;fill:#b33e24;fill-opacity:1;stroke:#b33e24;stroke-width:0.02116166;stroke-miterlimit:4;stroke-dasharray:none;stroke-opacity:1"
       d="m 60.780658,84.279633 c -0.04566,0.04045 0.01795,0.130022 0.0136,0.186317 0.305361,1.418337 0.597957,2.840028 0.906894,4.257259 0.03992,0.0639 0.09618,-0.05707 0.132675,-0.07617 0.548342,-0.588725 1.09424,-1.181944 1.603324,-1.804986 0.01468,-0.06625 -0.0996,-0.10311 -0.126515,-0.157843 -0.811519,-0.791161 -1.617821,-1.588502 -2.450041,-2.35783 -0.02454,-0.01716 -0.04809,-0.04518 -0.07993,-0.04675 z"
       id="path6017"
       inkscape:connector-curvature="0" />
    <path
       style="opacity:1;fill:#b33e24;fill-opacity:1;stroke:#b33e24;stroke-width:0.02937207;stroke-miterlimit:4;stroke-dasharray:none;stroke-opacity:1"
       d="m 61.999629,98.972636 c -0.588138,0.1789 -1.165638,0.39732 -1.735533,0.627537 -0.07313,0.0178 -0.131238,0.0881 -0.03493,0.13452 1.535427,1.535517 3.070608,3.072147 4.635136,4.578077 0.07392,0.0399 0.145011,0.1841 0.234776,0.15938 -0.153787,-0.3544 -0.373298,-0.6924 -0.554476,-1.03876 -0.815463,-1.456 -1.614111,-2.92207 -2.45146,-4.365434 -0.02923,-0.0261 -0.04356,-0.10134 -0.09351,-0.0953 z"
       id="path6019"
       inkscape:connector-curvature="0" />
    <path
       style="opacity:1;fill:#b33e24;fill-opacity:1;stroke:#b33e24;stroke-width:0.03140562;stroke-miterlimit:4;stroke-dasharray:none;stroke-opacity:1"
       d="m 66.330205,109.89791 c -0.533343,0.28307 -1.001302,0.67861 -1.504475,1.0118 -0.580033,0.41561 -1.177383,0.81477 -1.745331,1.24272 0.04466,0.0996 0.218233,0.0567 0.308987,0.0873 1.503881,0.12001 3.009899,0.21875 4.515763,0.31008 0.0614,0.007 0.237075,0.0143 0.149851,-0.0907 -0.561886,-0.85602 -1.117592,-1.71757 -1.705534,-2.55594 -0.0052,-0.004 -0.01251,-0.006 -0.01927,-0.005 z"
       id="path6021"
       inkscape:connector-curvature="0" />
    <path
       style="opacity:1;fill:#b33e24;fill-opacity:1;stroke:#b33e24;stroke-width:0.03216111;stroke-miterlimit:4;stroke-dasharray:none;stroke-opacity:1"
       d="m 74.054021,89.834925 c -1.120365,0.781441 -2.217053,1.59837 -3.303672,2.426278 -0.125257,0.0817 0.0805,0.09725 0.137501,0.10522 1.063698,0.154547 2.131925,0.280206 3.200344,0.396109 0.04483,-0.40758 0.0064,-0.851048 0.01921,-1.272436 -0.01044,-0.550051 0.01905,-1.109437 -0.03129,-1.654286 -0.0061,-0.0045 -0.01555,-0.0042 -0.02211,-8.79e-4 z"
       id="path6025"
       inkscape:connector-curvature="0" />
    <path
       style="opacity:1;fill:#b33e24;fill-opacity:1;stroke:#b33e24;stroke-width:0.02951999;stroke-miterlimit:4;stroke-dasharray:none;stroke-opacity:1"
       d="m 73.85648,96.139689 c -0.172917,0.137023 -0.286818,0.351492 -0.440958,0.513185 -1.023545,1.249874 -2.044764,2.501572 -3.063389,3.755436 0.207085,0.15124 0.497878,0.23282 0.735966,0.3582 0.510333,0.22315 1.010792,0.47958 1.534767,0.66589 0.144193,-0.42765 0.224381,-0.88869 0.341647,-1.3291 0.310971,-1.314211 0.638203,-2.625738 0.921314,-3.945854 -0.0028,-0.01346 -0.01718,-0.01933 -0.02935,-0.01776 z"
       id="path6027"
       inkscape:connector-curvature="0" />
    <path
       style="opacity:1;fill:#732817;fill-opacity:1;stroke:#732817;stroke-width:0.03322685;stroke-miterlimit:4;stroke-dasharray:none;stroke-opacity:1"
       d="m 64.124184,100.20194 c -0.02898,0.0965 0.103067,0.20804 0.130506,0.30674 1.088214,1.95233 2.183936,3.9007 3.277346,5.85012 0.0491,0.0541 0.109792,0.24409 0.194989,0.18804 0.191052,-1.48923 0.292235,-2.98961 0.487695,-4.4781 -1.029893,-0.54171 -2.109414,-1.02112 -3.176439,-1.50009 -0.303041,-0.12209 -0.598914,-0.28317 -0.914097,-0.36671 z"
       id="path6029"
       inkscape:connector-curvature="0" />
    <path
       style="opacity:1;fill:#732817;fill-opacity:1;stroke:#732817;stroke-width:0.02168009;stroke-miterlimit:4;stroke-dasharray:none;stroke-opacity:1"
       d="m 64.220724,89.585335 c -0.236841,0.200811 -0.422908,0.45945 -0.636002,0.685745 -0.327288,0.388064 -0.688362,0.750294 -0.987886,1.160492 -0.05543,0.134494 0.02922,0.286188 0.02517,0.426379 0.07196,0.508537 0.118105,1.024098 0.2084,1.528215 0.0723,0.05132 0.106222,-0.09823 0.123564,-0.140946 0.43421,-1.213459 0.872054,-2.427105 1.28835,-3.646038 -0.0013,-0.01023 -0.01181,-0.01687 -0.02159,-0.01384 z"
       id="path6031"
       inkscape:connector-curvature="0" />
    <path
       style="opacity:1;fill:#732817;fill-opacity:1;stroke:#732817;stroke-width:0.0209912;stroke-miterlimit:4;stroke-dasharray:none;stroke-opacity:1"
       d="m 65.728703,90.218069 c -0.08117,0.08361 -0.09227,0.224816 -0.144323,0.329439 -0.436722,1.235467 -0.886472,2.466848 -1.299437,3.710426 -0.01328,0.07728 0.09433,0.01651 0.112869,-0.01358 0.916115,-0.698576 1.833528,-1.396229 2.730906,-2.118798 -0.160063,-0.256249 -0.369708,-0.499539 -0.544309,-0.754195 -0.28443,-0.382217 -0.547021,-0.782334 -0.847424,-1.151743 l -0.0061,-0.0016 z"
       id="path6033"
       inkscape:connector-curvature="0" />
    <path
       style="opacity:1;fill:#732817;fill-opacity:1;stroke:#732817;stroke-width:0.02311245;stroke-miterlimit:4;stroke-dasharray:none;stroke-opacity:1"
       d="m 70.397998,82.521365 c -1.556429,0.190176 -3.112508,0.388532 -4.664968,0.608101 -0.108771,0.02989 -2.61e-4,0.159406 0.0042,0.226226 0.243396,0.722559 0.456634,1.456621 0.735244,2.166589 0.0341,0.09088 0.117047,-0.04122 0.165649,-0.05865 1.264739,-0.964208 2.528545,-1.930379 3.773803,-2.919424 0.0085,-0.0076 -0.0032,-0.02564 -0.01385,-0.02284 z"
       id="path6035"
       inkscape:connector-curvature="0" />
    <path
       style="opacity:1;fill:#732817;fill-opacity:1;stroke:#732817;stroke-width:0.02859225;stroke-miterlimit:4;stroke-dasharray:none;stroke-opacity:1"
       d="m 68.697962,68.544885 c -0.460319,0.284834 -0.877559,0.641145 -1.319294,0.955731 -0.835606,0.635997 -1.69575,1.240879 -2.516535,1.895674 -0.0353,0.08453 0.106361,0.164172 0.132788,0.244154 0.569889,0.788318 1.11996,1.592963 1.721149,2.357525 0.0457,0.08404 0.109116,0.02857 0.113956,-0.04786 0.637876,-1.777992 1.269399,-3.55864 1.893401,-5.341565 0.01455,-0.02569 0.01346,-0.06786 -0.02547,-0.06366 z"
       id="path6037"
       inkscape:connector-curvature="0" />
    <path
       style="opacity:1;fill:#732817;fill-opacity:1;stroke:#732817;stroke-width:0.03114332;stroke-miterlimit:4;stroke-dasharray:none;stroke-opacity:1"
       d="m 65.3329,57.935462 c -0.08903,0.07934 -0.03071,0.242251 -0.06741,0.350048 -0.130233,1.286265 -0.282572,2.570503 -0.402715,3.857647 0.517818,0.301701 1.080781,0.54174 1.618704,0.81323 0.713172,0.337937 1.425015,0.691118 2.152862,0.990589 0.05276,-0.08588 -0.08368,-0.19846 -0.105337,-0.287411 -1.030007,-1.858016 -2.042316,-3.725955 -3.087258,-5.575666 -0.03668,-0.04364 -0.05384,-0.128398 -0.108839,-0.148437 z"
       id="path6039"
       inkscape:connector-curvature="0" />
    <path
       style="opacity:1;fill:#732817;fill-opacity:1;stroke:#732817;stroke-width:0.0253833;stroke-miterlimit:4;stroke-dasharray:none;stroke-opacity:1"
       d="m 68.123827,78.456536 c -0.110874,0.075 -0.160646,0.226672 -0.24704,0.329456 -0.501631,0.774752 -1.009544,1.547132 -1.477438,2.342534 -0.04149,0.09644 0.111256,0.06143 0.159108,0.05175 1.644721,-0.236081 3.294257,-0.447307 4.937008,-0.698454 0.05079,0.0051 0.125856,-0.03827 0.04674,-0.07166 -1.065881,-0.6607 -2.157547,-1.279978 -3.252039,-1.89185 -0.05323,-0.02306 -0.106232,-0.06125 -0.166329,-0.06177 z"
       id="path6041"
       inkscape:connector-curvature="0" />
    <path
       style="opacity:1;fill:#732817;fill-opacity:1;stroke:#732817;stroke-width:0.02390094;stroke-miterlimit:4;stroke-dasharray:none;stroke-opacity:1"
       d="m 67.290294,94.810432 c -1.083887,0.797893 -2.149229,1.622253 -3.208936,2.452274 -0.108361,0.06057 0.06262,0.0998 0.104571,0.129261 0.916109,0.434079 1.83792,0.859143 2.765459,1.266792 0.06523,-0.0777 0.03145,-0.21472 0.05765,-0.312064 0.104399,-1.171855 0.222148,-2.34325 0.307406,-3.516377 4.3e-5,-0.01354 -0.01225,-0.02571 -0.02614,-0.01988 z"
       id="path6043"
       inkscape:connector-curvature="0" />
    <path
       style="opacity:1;fill:#732817;fill-opacity:1;stroke:#732817;stroke-width:0.03977497;stroke-miterlimit:4;stroke-dasharray:none;stroke-opacity:1"
       d="m 72.351488,105.47519 c -0.680775,0.64414 -1.269656,1.3843 -1.89223,2.08534 -0.206062,0.25934 -0.467754,0.50488 -0.636899,0.77395 1.525182,0.73572 3.055567,1.46145 4.593853,2.16921 0.05955,-0.0878 -0.08322,-0.24995 -0.09548,-0.35766 -0.63407,-1.54788 -1.244563,-3.10703 -1.9259,-4.63471 -0.0099,-0.0146 -0.02001,-0.0433 -0.04335,-0.0361 z"
       id="path6047"
       inkscape:connector-curvature="0" />
    <path
       style="opacity:1;fill:#732817;fill-opacity:1;stroke:#732817;stroke-width:0.04002338;stroke-miterlimit:4;stroke-dasharray:none;stroke-opacity:1"
       d="m 69.584133,102.67475 c -0.101128,0.54856 -0.119226,1.13264 -0.185967,1.69428 -0.0477,0.64588 -0.145743,1.29193 -0.157047,1.93863 0.03638,0.17331 0.181825,-0.0697 0.237405,-0.10975 0.758284,-0.83693 1.529177,-1.66881 2.228253,-2.55493 -0.08537,-0.13505 -0.307821,-0.13463 -0.436504,-0.22717 -0.56324,-0.24306 -1.113946,-0.52175 -1.68614,-0.74106 z"
       id="path6049"
       inkscape:connector-curvature="0" />
    <path
       style="opacity:1;fill:#732817;fill-opacity:1;stroke:#732817;stroke-width:0.06344153;stroke-miterlimit:4;stroke-dasharray:none;stroke-opacity:1"
       d="m 78.909855,52.726891 c -0.188865,1.318866 -0.360551,2.651905 -0.518933,3.968812 0.290475,0.06207 0.637282,-0.07532 0.943663,-0.05771 1.877332,-0.153686 3.755963,-0.290902 5.634059,-0.434818 -0.568426,-0.433121 -1.305218,-0.782835 -1.944454,-1.17473 -1.36152,-0.775742 -2.714953,-1.567921 -4.092404,-2.314308 z"
       id="path6055"
       inkscape:connector-curvature="0" />
    <path
       style="opacity:1;fill:#732817;fill-opacity:1;stroke:#732817;stroke-width:0.0453832;stroke-miterlimit:4;stroke-dasharray:none;stroke-opacity:1"
       d="m 81.614938,58.707724 c -1.474695,0.09235 -2.95059,0.197599 -4.419543,0.354822 -0.171128,0.113065 -0.07617,0.38558 -0.11756,0.557026 -0.01224,0.851914 -0.09064,1.705939 -0.07904,2.556332 0.08456,0.114071 0.227823,-0.117948 0.315556,-0.137125 1.47111,-1.085089 2.946498,-2.168811 4.374336,-3.309427 0.01212,-0.03982 -0.06598,-0.01199 -0.07374,-0.02163 z"
       id="path6063"
       inkscape:connector-curvature="0" />
    <path
       style="opacity:1;fill:#732817;fill-opacity:1;stroke:#732817;stroke-width:0.08564726;stroke-miterlimit:4;stroke-dasharray:none;stroke-opacity:1"
       d="m 96.031003,54.984869 c -0.364877,0.266741 -0.457336,0.81569 -0.720695,1.17868 -0.893884,1.755252 -1.866763,3.490053 -2.654678,5.288525 0.338775,1.160736 0.62162,2.3616 1.058212,3.481092 0.297271,-0.03269 0.204358,-0.551231 0.316369,-0.750076 0.677578,-3.057684 1.456588,-6.09554 2.068875,-9.166103 -0.0084,-0.02859 -0.04261,-0.0355 -0.06808,-0.03212 z"
       id="path6065"
       inkscape:connector-curvature="0" />
    <path
       style="opacity:1;fill:#732817;fill-opacity:1;stroke:#732817;stroke-width:0.07968115;stroke-miterlimit:4;stroke-dasharray:none;stroke-opacity:1"
       d="m 105.77478,59.662068 c -1.73958,0.80791 -3.54422,1.49433 -5.22347,2.422803 -0.16078,0.191432 0.17562,0.46274 0.19528,0.67287 0.58115,1.194875 1.06857,2.444714 1.72547,3.598165 0.19639,-0.05282 0.24039,-0.45827 0.38486,-0.613794 1.01362,-2.023485 2.07131,-4.037521 3.00517,-6.093584 l -0.029,-0.01075 z"
       id="path6067"
       inkscape:connector-curvature="0" />
    <path
       style="opacity:1;fill:#732817;fill-opacity:1;stroke:#732817;stroke-width:0.08500144;stroke-miterlimit:4;stroke-dasharray:none;stroke-opacity:1"
       d="m 100.05415,63.343754 c -0.177387,0.193223 0.045,0.587561 -0.007,0.833911 0.26469,2.731119 0.55776,5.474676 0.88023,8.190521 0.30794,0.06252 0.23319,-0.460756 0.31843,-0.636516 0.26047,-1.527809 0.48179,-3.063619 0.70874,-4.595721 -0.62716,-1.245926 -1.10963,-2.578421 -1.83401,-3.768785 -0.0184,-0.01515 -0.0422,-0.02731 -0.0667,-0.02342 z"
       id="path6069"
       inkscape:connector-curvature="0" />
    <path
       style="opacity:1;fill:#732817;fill-opacity:1;stroke:#732817;stroke-width:0.07426295;stroke-miterlimit:4;stroke-dasharray:none;stroke-opacity:1"
       d="m 106.73087,62.082838 c -0.1653,0.651523 -0.1676,1.387054 -0.27274,2.066673 -0.24957,2.381691 -0.55999,4.773927 -0.74621,7.152525 0.89656,0.237117 1.8182,0.508593 2.71307,0.677213 -0.11977,-1.144882 -0.36729,-2.298416 -0.52759,-3.446647 -0.36484,-2.116279 -0.61374,-4.257259 -1.08226,-6.353164 -0.0162,-0.03504 -0.0326,-0.103707 -0.0843,-0.0966 z"
       id="path6071"
       inkscape:connector-curvature="0" />
    <path
       style="opacity:1;fill:#732817;fill-opacity:1;stroke:#732817;stroke-width:0.08133001;stroke-miterlimit:4;stroke-dasharray:none;stroke-opacity:1"
       d="m 105.86141,72.614029 c -0.26293,0.315913 -0.12395,0.838797 -0.19816,1.227346 -0.0271,1.608902 -0.16006,3.227771 -0.0542,4.832696 0.149,0.131408 0.23661,-0.305626 0.33848,-0.378055 0.92068,-1.64096 1.90288,-3.261357 2.66168,-4.98401 -0.044,-0.225338 -0.47489,-0.137697 -0.64445,-0.244465 -0.69976,-0.156887 -1.40303,-0.306809 -2.10329,-0.453512 z"
       id="path6073"
       inkscape:connector-curvature="0" />
    <path
       style="opacity:1;fill:#732817;fill-opacity:1;stroke:#732817;stroke-width:0.07694479;stroke-miterlimit:4;stroke-dasharray:none;stroke-opacity:1"
       d="m 105.73399,81.654012 c -0.20158,0.09528 -0.13287,0.482361 -0.23966,0.67309 -0.37853,1.591825 -0.83173,3.192215 -1.14234,4.786081 0.28773,0.02079 0.42164,-0.407624 0.64586,-0.540296 1.42138,-1.524708 2.85894,-3.038145 4.22435,-4.612448 -0.35939,-0.153307 -0.86221,-0.09464 -1.26846,-0.164753 -0.73919,-0.05591 -1.47852,-0.123696 -2.21975,-0.141674 z"
       id="path6075"
       inkscape:connector-curvature="0" />
    <path
       style="opacity:1;fill:#732817;fill-opacity:1;stroke:#732817;stroke-width:0.08411984;stroke-miterlimit:4;stroke-dasharray:none;stroke-opacity:1"
       d="m 100.84953,97.505566 c 0.5254,2.465397 1.23572,4.902974 1.82707,7.358574 0.26253,0.90841 0.41414,1.86904 0.74171,2.74862 0.27644,0.0749 0.27831,-0.44399 0.36973,-0.58746 0.76452,-2.47371 1.53825,-4.94535 2.25375,-7.433507 -1.68739,-0.745204 -3.44218,-1.408473 -5.16515,-2.096084 z"
       id="path6077"
       inkscape:connector-curvature="0" />
    <path
       style="opacity:1;fill:#732817;fill-opacity:1;stroke:#732817;stroke-width:0.07598817;stroke-miterlimit:4;stroke-dasharray:none;stroke-opacity:1"
       d="m 99.172986,91.993332 c -0.102,1.010208 0.052,2.055476 0.0827,3.075837 -10e-4,0.489576 0.755604,0.427109 1.082554,0.675412 1.07375,0.417954 2.13665,0.909304 3.22141,1.274062 0.14977,-0.171701 -0.25154,-0.34102 -0.29286,-0.495374 -1.34581,-1.522137 -2.6737,-3.07034 -4.079714,-4.533054 z"
       id="path6079"
       inkscape:connector-curvature="0" />
    <path
       style="opacity:1;fill:#732817;fill-opacity:1;stroke:#732817;stroke-width:0.06362168;stroke-miterlimit:4;stroke-dasharray:none;stroke-opacity:1"
       d="m 97.297222,79.68739 c -0.08323,0.192476 0.07881,0.48272 0.08503,0.704961 0.54868,2.743297 1.140067,5.485263 1.725324,8.216491 0.445557,-0.130361 0.872617,-0.444603 1.308594,-0.64094 0.37836,-0.250348 0.88129,-0.373013 1.18421,-0.717235 -0.3719,-0.774681 -0.84979,-1.522713 -1.2545,-2.289916 -0.981334,-1.742304 -1.919611,-3.513264 -2.943277,-5.229247 -0.02886,-0.02481 -0.06546,-0.04895 -0.105369,-0.04412 z"
       id="path6081"
       inkscape:connector-curvature="0" />
    <path
       style="opacity:1;fill:#732817;fill-opacity:1;stroke:#732817;stroke-width:0.07539055;stroke-miterlimit:4;stroke-dasharray:none;stroke-opacity:1"
       d="m 109.17817,107.89769 c -1.9635,0.53367 -3.92282,1.10443 -5.8513,1.74989 0.3112,0.43961 0.83865,0.76649 1.24119,1.14664 0.55601,0.43016 1.08626,0.96402 1.66796,1.32549 1.02199,-1.37838 2.02387,-2.77546 2.98543,-4.19595 6.4e-4,-0.031 -0.0255,-0.0295 -0.0433,-0.026 z"
       id="path6083"
       inkscape:connector-curvature="0" />
    <path
       style="opacity:1;fill:#732817;fill-opacity:1;stroke:#732817;stroke-width:0.09205701;stroke-miterlimit:4;stroke-dasharray:none;stroke-opacity:1"
       d="m 109.27692,105.44773 c -1.65338,0.79365 -3.3025,1.63273 -4.87417,2.57111 -0.0272,0.343 0.4884,-0.0324 0.654,-0.0145 1.58984,-0.48502 3.22758,-0.92919 4.77861,-1.46742 -0.1963,-0.32453 -0.26888,-0.84613 -0.55844,-1.08922 z"
       id="path6085"
       inkscape:connector-curvature="0" />
    <path
       style="opacity:1;fill:#732817;fill-opacity:1;stroke:#732817;stroke-width:0.07385837;stroke-miterlimit:4;stroke-dasharray:none;stroke-opacity:1"
       d="m 85.875804,94.779283 c -0.141742,0.169833 0.283518,0.278342 0.353857,0.381987 2.611474,1.729781 5.205385,3.500089 7.855243,5.16345 0.134204,-0.21628 -0.118465,-0.549427 -0.09478,-0.797587 -0.234087,-1.113454 -0.366053,-2.258801 -0.691704,-3.347858 -1.230448,-0.389556 -2.539391,-0.501241 -3.800768,-0.776657 -1.20625,-0.210129 -2.408188,-0.461659 -3.621848,-0.623335 z"
       id="path6089"
       inkscape:connector-curvature="0" />
    <path
       style="opacity:1;fill:#732817;fill-opacity:1;stroke:#732817;stroke-width:0.05897248;stroke-miterlimit:4;stroke-dasharray:none;stroke-opacity:1"
       d="m 87.448973,97.754896 c -0.108619,0.103505 0.133999,0.271633 0.176164,0.375125 1.959629,2.350809 3.907389,4.713689 5.918618,7.020719 0.159209,0.18842 0.174266,-0.15359 0.166421,-0.25391 0.07804,-0.95495 0.211504,-1.91411 0.25226,-2.86748 -2.134708,-1.45257 -4.293255,-2.874674 -6.467161,-4.266046 -0.01493,-0.0047 -0.03047,-0.0092 -0.0463,-0.0084 z"
       id="path6091"
       inkscape:connector-curvature="0" />
    <path
       style="opacity:1;fill:#732817;fill-opacity:1;stroke:#732817;stroke-width:0.03524343;stroke-miterlimit:4;stroke-dasharray:none;stroke-opacity:1"
       d="m 73.257832,103.34782 c -0.100542,0.0757 0.04289,0.2337 0.06015,0.32604 0.873439,1.9838 1.712585,3.98381 2.590954,5.96471 0.02202,0.0956 0.177079,0.10102 0.137945,-0.0148 -0.461596,-1.65174 -0.938197,-3.30055 -1.417792,-4.94641 -0.452385,-0.44157 -0.880396,-0.91176 -1.355565,-1.3281 l -0.01246,-0.002 z"
       id="path6093"
       inkscape:connector-curvature="0" />
    <path
       style="opacity:1;fill:#f25430;fill-opacity:1;stroke:#f25430;stroke-width:0.10729102;stroke-miterlimit:4;stroke-dasharray:none;stroke-opacity:1"
       d="m 98.040512,77.896699 c 0.463797,1.144471 1.191124,2.26904 1.760451,3.398274 1.079277,1.919416 2.057797,3.910717 3.231917,5.768822 0.31433,0.217569 0.25886,-0.496803 0.37716,-0.646416 0.39846,-1.572772 0.78615,-3.161666 1.12116,-4.741186 -2.16329,-1.256141 -4.27297,-2.628023 -6.490688,-3.779494 z"
       id="path6095"
       inkscape:connector-curvature="0" />
    <path
       style="opacity:1;fill:#f25430;fill-opacity:1;stroke:#f25430;stroke-width:0.02688757;stroke-miterlimit:4;stroke-dasharray:none;stroke-opacity:1"
       d="m 102.34949,68.850555 c -0.11334,0.100094 -0.0713,0.293324 -0.117,0.426983 -0.25461,1.653263 -0.51922,3.306541 -0.75081,4.962397 0.0765,0.05538 0.17218,-0.07381 0.2485,-0.09589 0.91395,-0.571983 1.83629,-1.132817 2.73681,-1.725111 0.0427,-0.122126 -0.0885,-0.238893 -0.1274,-0.348824 -0.59794,-1.055705 -1.19791,-2.113619 -1.88202,-3.116443 -0.0327,-0.03288 -0.0569,-0.09707 -0.10808,-0.103111 z"
       id="path6097"
       inkscape:connector-curvature="0" />
    <path
       style="opacity:1;fill:#f25430;fill-opacity:1;stroke:#f25430;stroke-width:0.04051583;stroke-miterlimit:4;stroke-dasharray:none;stroke-opacity:1"
       d="m 99.118346,62.881497 c -1.257734,1.173141 -2.455547,2.413558 -3.671223,3.631476 -0.249759,0.265414 -0.523776,0.513058 -0.753625,0.7948 0.716356,0.849398 1.503523,1.651749 2.252417,2.477986 1.116087,1.183628 2.193061,2.408105 3.350075,3.550799 0.13257,-0.04022 0.005,-0.256287 0.0277,-0.350731 -0.365847,-3.331099 -0.658807,-6.671969 -1.128244,-9.990458 -0.0119,-0.03763 -0.0172,-0.122876 -0.0772,-0.113872 z"
       id="path6099"
       inkscape:connector-curvature="0" />
    <path
       style="opacity:1;fill:#f25430;fill-opacity:1;stroke:#f25430;stroke-width:0.03546805;stroke-miterlimit:4;stroke-dasharray:none;stroke-opacity:1"
       d="m 86.858442,58.913041 c -0.158198,0.223567 -0.229055,0.519425 -0.355034,0.76764 -0.624949,1.489255 -1.26801,2.972299 -1.875364,4.46812 -0.04898,0.150924 0.172358,0.01118 0.231084,0.0077 1.969676,-0.656165 3.945472,-1.303061 5.90357,-1.988446 -0.03477,-0.156815 -0.253691,-0.225188 -0.352014,-0.34668 -1.167125,-0.957807 -2.30421,-1.953905 -3.491142,-2.886595 -0.01842,-0.01066 -0.03872,-0.02427 -0.0611,-0.02175 z"
       id="path6101"
       inkscape:connector-curvature="0" />
    <path
       style="opacity:1;fill:#f25430;fill-opacity:1;stroke:#f25430;stroke-width:0.04181967;stroke-miterlimit:4;stroke-dasharray:none;stroke-opacity:1"
       d="m 88.237294,52.568649 c -0.250779,1.050955 -0.389645,2.132741 -0.578342,3.19855 -0.0464,0.420662 -0.182586,0.843935 -0.151298,1.267741 0.617676,0.560738 1.295199,1.066637 1.936956,1.604479 0.8174,0.650463 1.612599,1.336709 2.453046,1.954031 0.08743,-0.07129 -0.07644,-0.23038 -0.08731,-0.32651 -1.165545,-2.5619 -2.298685,-5.139872 -3.523719,-7.67395 -0.0091,-0.01682 -0.02488,-0.04165 -0.04934,-0.02434 z"
       id="path6103"
       inkscape:connector-curvature="0" />
    <path
       style="opacity:1;fill:#f25430;fill-opacity:1;stroke:#f25430;stroke-width:0.03195053;stroke-miterlimit:4;stroke-dasharray:none;stroke-opacity:1"
       d="m 70.109827,53.926778 c -0.843155,0.444553 -1.644301,0.969302 -2.466894,1.451842 -0.280502,0.193252 -0.61471,0.325063 -0.86482,0.554925 0.07178,0.118149 0.269726,0.09416 0.386214,0.14983 1.847691,0.460586 3.695376,0.925828 5.555583,1.331999 0.101416,-0.02651 -0.05916,-0.14321 -0.07709,-0.193416 -0.840065,-1.096895 -1.684229,-2.191692 -2.517515,-3.293183 -0.0048,-0.0026 -0.01023,-0.003 -0.01547,-0.002 z"
       id="path6105"
       inkscape:connector-curvature="0" />
    <path
       style="opacity:1;fill:#f25430;fill-opacity:1;stroke:#f25430;stroke-width:0.03892951;stroke-miterlimit:4;stroke-dasharray:none;stroke-opacity:1"
       d="m 97.063571,55.248855 c -0.151245,0.216229 -0.144984,0.523722 -0.225743,0.773801 -0.726465,3.2309 -1.471195,6.461818 -2.180967,9.694284 0.0636,0.109126 0.167615,-0.113528 0.231069,-0.135418 1.36098,-1.329084 2.697561,-2.68277 4.044789,-4.025781 -0.548177,-2.000668 -1.144878,-4.001241 -1.714784,-6.000991 -0.04511,-0.08835 -0.05218,-0.264343 -0.154364,-0.305895 z"
       id="path6107"
       inkscape:connector-curvature="0" />
    <path
       style="opacity:1;fill:#f25430;fill-opacity:1;stroke:#f25430;stroke-width:0.04647419;stroke-miterlimit:4;stroke-dasharray:none;stroke-opacity:1"
       d="m 98.092542,90.99732 c -1.145759,1.041745 -2.221496,2.165656 -3.319836,3.25938 -0.235133,0.257298 -0.513463,0.4884 -0.717518,0.76799 0.270037,0.08691 0.604407,0.02868 0.895808,0.06173 1.127387,0.01799 2.258202,0.07773 3.383816,0.06182 0.161197,-0.05921 0.0263,-0.307373 0.0624,-0.433608 -0.0757,-1.209541 -0.11048,-2.424964 -0.24717,-3.628891 -0.0106,-0.0308 -0.0123,-0.08989 -0.0575,-0.08841 z"
       id="path6117"
       inkscape:connector-curvature="0" />
    <path
       style="opacity:1;fill:#f25430;fill-opacity:1;stroke:#f25430;stroke-width:0.04409751;stroke-miterlimit:4;stroke-dasharray:none;stroke-opacity:1"
       d="m 99.154686,96.800632 c -0.900044,1.286368 -1.716234,2.634884 -2.560419,3.960048 -0.195269,0.3428 -0.451851,0.66843 -0.601839,1.02794 1.931984,1.96988 3.906805,3.89944 5.892682,5.81537 0.0714,0.13908 0.21791,0.0141 0.12695,-0.098 -0.89068,-3.44282 -1.77534,-6.88769 -2.693444,-10.323201 -0.0631,-0.102876 -0.0457,-0.331779 -0.16393,-0.382056 z"
       id="path6119"
       inkscape:connector-curvature="0" />
    <path
       style="opacity:1;fill:#f25430;fill-opacity:1;stroke:#f25430;stroke-width:0.03722886;stroke-miterlimit:4;stroke-dasharray:none;stroke-opacity:1"
       d="m 95.380877,108.15447 c -0.09615,0.1881 -0.08335,0.44711 -0.138484,0.65978 -0.119008,0.78834 -0.279032,1.57733 -0.35735,2.36805 0.115967,0.0861 0.275543,-0.0978 0.401255,-0.10241 1.793332,-0.68997 3.602991,-1.34562 5.380482,-2.07191 0.0222,-0.12621 -0.21241,-0.084 -0.28165,-0.12036 -1.665801,-0.25834 -3.332841,-0.51481 -5.004261,-0.73309 z"
       id="path6121"
       inkscape:connector-curvature="0" />
    <path
       style="opacity:1;fill:#f25430;fill-opacity:1;stroke:#f25430;stroke-width:0.03664547;stroke-miterlimit:4;stroke-dasharray:none;stroke-opacity:1"
       d="m 110.33286,108.23833 c -0.2422,0.19052 -0.36686,0.50382 -0.56342,0.74053 -0.74822,1.07982 -1.53666,2.13361 -2.25908,3.23008 0.11486,0.0741 0.30595,-0.003 0.44659,0.015 0.98798,-0.053 1.97857,-0.0927 2.96317,-0.18632 0.0491,-0.2368 -0.0504,-0.50058 -0.0668,-0.74382 -0.16164,-1.01531 -0.30014,-2.03968 -0.48979,-3.04741 -0.009,-0.007 -0.02,-0.0107 -0.0307,-0.009 z"
       id="path6123"
       inkscape:connector-curvature="0" />
    <path
       style="opacity:1;fill:#f25430;fill-opacity:1;stroke:#f25430;stroke-width:0.05985243;stroke-miterlimit:4;stroke-dasharray:none;stroke-opacity:1"
       d="m 81.439583,83.215284 c -1.067971,0.27729 -2.138332,0.563329 -3.188194,0.897904 -0.607558,1.015863 -1.242449,2.027003 -1.821991,3.052708 0.20988,-0.0062 0.392498,-0.266085 0.581487,-0.365929 1.490966,-1.172894 3.007513,-2.320547 4.454182,-3.545522 0.01542,-0.01931 -3.39e-4,-0.04692 -0.02549,-0.03917 z"
       id="path6125"
       inkscape:connector-curvature="0" />
    <path
       style="opacity:1;fill:#d94b2b;fill-opacity:1;stroke:#d94b2b;stroke-width:0.06253914;stroke-miterlimit:4;stroke-dasharray:none;stroke-opacity:1"
       d="m 73.868721,83.671964 c -0.632919,1.045982 -1.07325,2.206335 -1.618078,3.30248 -0.45145,1.008438 -0.967413,2.006134 -1.373417,3.024966 0.242325,-0.02307 0.445668,-0.303607 0.665654,-0.417494 0.856603,-0.639028 1.726098,-1.269637 2.570745,-1.919541 -0.09661,-1.32402 -0.05324,-2.662188 -0.214854,-3.978686 -0.0053,-0.01055 -0.01857,-0.01714 -0.03005,-0.01172 z"
       id="path6129"
       inkscape:connector-curvature="0" />
    <path
       style="opacity:1;fill:#d94b2b;fill-opacity:1;stroke:#d94b2b;stroke-width:0.01847217;stroke-miterlimit:4;stroke-dasharray:none;stroke-opacity:1"
       d="m 75.441365,89.344359 c -0.04726,0.08886 -0.01413,0.209238 -0.02813,0.308829 -0.0052,0.960325 -0.0147,1.921037 0.0036,2.881205 0.01246,0.07055 -0.01327,0.220775 0.09404,0.223458 0.856764,0.09798 1.712732,0.2181 2.569285,0.323681 0.823048,0.108341 1.647206,0.207025 2.469973,0.31184 0.04578,0.02451 0.149065,0.0019 0.146696,-0.05394 -0.317262,-0.28722 -0.673186,-0.531136 -1.008582,-0.797314 -1.406635,-1.067463 -2.805074,-2.146225 -4.225394,-3.195418 -0.0062,-0.0038 -0.01478,-0.0052 -0.02154,-0.0023 z"
       id="path6133"
       inkscape:connector-curvature="0" />
    <path
       style="opacity:1;fill:#d94b2b;fill-opacity:1;stroke:#d94b2b;stroke-width:0.01387127;stroke-miterlimit:4;stroke-dasharray:none;stroke-opacity:1"
       d="m 69.491037,93.740813 c -0.0463,-0.0038 -0.110995,0.004 -0.104411,0.0666 -0.08342,0.859684 -0.146357,1.72216 -0.219846,2.58309 -0.04373,0.538568 -0.08478,1.078156 -0.123765,1.616625 -0.02046,0.04591 -0.01668,0.143142 0.05475,0.129909 0.121236,-0.106789 0.213085,-0.246367 0.322933,-0.365443 0.977904,-1.158949 1.948499,-2.3242 2.905577,-3.500334 0.0381,-0.02726 0.02907,-0.06936 0.06093,-0.103025 0.04194,-0.05862 -0.02659,-0.110182 -0.08273,-0.109394 -0.928041,-0.106992 -1.855035,-0.226539 -2.784929,-0.317794 l -0.01387,-1.58e-4 -4.72e-4,-8e-6 h -3.13e-4 z"
       id="path6135"
       inkscape:connector-curvature="0" />
    <path
       style="opacity:1;fill:#d94b2b;fill-opacity:1;stroke:#d94b2b;stroke-width:0.06822281;stroke-miterlimit:4;stroke-dasharray:none;stroke-opacity:1"
       d="m 71.520599,72.882315 c -0.572269,0.432712 -0.985716,1.063309 -1.488237,1.576984 -0.37186,0.479694 -0.886212,0.887653 -1.140872,1.44121 0.903572,0.6114 1.910501,1.116835 2.85609,1.680871 0.553132,0.27519 1.065801,0.679158 1.648481,0.874819 -0.280731,-1.122806 -0.71387,-2.238844 -1.064395,-3.354096 -0.267403,-0.733058 -0.464506,-1.512028 -0.784683,-2.216189 -0.0083,-0.0034 -0.01745,-0.0045 -0.02639,-0.0036 z"
       id="path6137"
       inkscape:connector-curvature="0" />
    <path
       style="opacity:1;fill:#d94b2b;fill-opacity:1;stroke:#d94b2b;stroke-width:0.05703093;stroke-miterlimit:4;stroke-dasharray:none;stroke-opacity:1"
       d="m 74.969598,70.309945 c -0.624063,0.391594 -1.256481,0.795295 -1.838355,1.241425 0.379602,1.496143 0.894866,2.95942 1.403383,4.417115 0.0186,0.122739 0.207484,0.147985 0.183679,-0.005 0.08402,-1.8797 0.204633,-3.758032 0.270341,-5.638378 l -0.01704,-0.01526 z"
       id="path6139"
       inkscape:connector-curvature="0" />
    <path
       style="opacity:1;fill:#d94b2b;fill-opacity:1;stroke:#d94b2b;stroke-width:0.02085016;stroke-miterlimit:4;stroke-dasharray:none;stroke-opacity:1"
       d="m 68.077057,58.516733 c -0.04814,0.0482 0.0414,0.123933 0.05244,0.176756 0.90721,1.668052 1.816313,3.335379 2.750097,4.988732 0.0729,0.102247 0.114943,0.239193 0.211859,0.319448 0.409324,0.0071 0.817325,-0.06467 1.225413,-0.09445 0.293396,-0.03865 0.59551,-0.04177 0.882164,-0.117024 0.05002,-0.0583 -0.06546,-0.119741 -0.08934,-0.167209 -1.323239,-1.389714 -2.679301,-2.747874 -4.020922,-4.119878 -0.328882,-0.322137 -0.635078,-0.669347 -0.97986,-0.97428 -0.0095,-0.0061 -0.01987,-0.01373 -0.03184,-0.01208 z"
       id="path6141"
       inkscape:connector-curvature="0" />
    <path
       style="opacity:1;fill:#d94b2b;fill-opacity:1;stroke:#d94b2b;stroke-width:0.02693095;stroke-miterlimit:4;stroke-dasharray:none;stroke-opacity:1"
       d="m 75.72086,51.82062 c -1.259283,0.217752 -2.521833,0.435432 -3.777906,0.676586 -0.05847,0.08189 0.09435,0.166822 0.120505,0.237276 1.020869,1.292537 2.020758,2.602249 3.066815,3.87448 0.07218,0.106563 0.117955,-0.06254 0.113025,-0.121068 0.198072,-1.552747 0.407972,-3.104418 0.581182,-4.66007 -0.0092,-0.05001 -0.0737,-0.0039 -0.103621,-0.0071 z"
       id="path6143"
       inkscape:connector-curvature="0" />
    <path
       style="opacity:1;fill:#d94b2b;fill-opacity:1;stroke:#d94b2b;stroke-width:0.02791048;stroke-miterlimit:4;stroke-dasharray:none;stroke-opacity:1"
       d="m 83.994018,59.689074 c -1.601172,1.169755 -3.176965,2.379054 -4.760818,3.574025 -0.327603,0.260029 -0.68328,0.497862 -0.992336,0.774123 0.03428,0.08813 0.177197,0.01249 0.247868,0.02649 1.285275,-0.107024 2.575529,-0.170911 3.858406,-0.29633 0.549055,-1.270787 1.086505,-2.550415 1.610375,-3.833081 0.0028,-0.05717 0.120708,-0.216716 0.03651,-0.24523 z"
       id="path6145"
       inkscape:connector-curvature="0" />
    <path
       style="opacity:1;fill:#d94b2b;fill-opacity:1;stroke:#d94b2b;stroke-width:0.02438865;stroke-miterlimit:4;stroke-dasharray:none;stroke-opacity:1"
       d="m 89.028487,51.641111 c -0.114906,0.0078 -0.02424,0.152879 -9.58e-4,0.205685 1.04589,2.274957 2.079157,4.556193 3.146086,6.821201 0.08733,0.083 0.11734,-0.0952 0.155936,-0.142114 1.029215,-2.005202 2.068131,-4.006098 3.065064,-6.027596 -0.01538,-0.115374 -0.183479,-0.06327 -0.261744,-0.09584 -2.033716,-0.261438 -4.06765,-0.526805 -6.10436,-0.761331 z"
       id="path6147"
       inkscape:connector-curvature="0" />
    <path
       style="opacity:1;fill:#d94b2b;fill-opacity:1;stroke:#d94b2b;stroke-width:0.03043294;stroke-miterlimit:4;stroke-dasharray:none;stroke-opacity:1"
       d="m 97.794594,53.545971 c -0.07337,0.08152 0.02665,0.229249 0.03218,0.32961 0.616205,2.265587 1.231112,4.5334 1.851749,6.796514 0.11633,0.08883 0.2519,-0.0839 0.366617,-0.104379 1.84393,-0.88599 3.71006,-1.727011 5.53932,-2.642792 0.11838,-0.07074 -0.0896,-0.14757 -0.1389,-0.186697 -2.49816,-1.379322 -4.97275,-2.802739 -7.499438,-4.129454 -0.0496,-0.02138 -0.09766,-0.05421 -0.151527,-0.0628 z"
       id="path6151"
       inkscape:connector-curvature="0" />
    <path
       style="opacity:1;fill:#d94b2b;fill-opacity:1;stroke:#d94b2b;stroke-width:0.02626728;stroke-miterlimit:4;stroke-dasharray:none;stroke-opacity:1"
       d="m 105.80387,61.543827 c -0.14368,0.07896 -0.17003,0.276063 -0.26058,0.403454 -0.96169,1.894137 -1.91753,3.791801 -2.83645,5.707026 -0.055,0.111729 0.0893,0.211036 0.11809,0.314198 0.61712,1.086177 1.2361,2.172456 1.87582,3.244918 0.0278,0.06876 0.10888,0.05638 0.10113,-0.02282 0.13861,-0.982829 0.22083,-1.973428 0.33834,-2.959157 0.23604,-2.200268 0.49644,-4.398331 0.69803,-6.602035 -6.1e-4,-0.02937 0.0162,-0.09075 -0.0344,-0.08558 z"
       id="path6153"
       inkscape:connector-curvature="0" />
    <path
       style="opacity:1;fill:#d94b2b;fill-opacity:1;stroke:#d94b2b;stroke-width:0.03805856;stroke-miterlimit:4;stroke-dasharray:none;stroke-opacity:1"
       d="m 99.920483,75.371917 c -1.033934,0.05812 -2.075373,0.07032 -3.101903,0.208803 -0.05844,0.09027 0.162696,0.1344 0.209097,0.19676 1.991819,1.200892 3.991533,2.390015 6.000453,3.56182 0.0505,0.06413 0.22651,0.06935 0.14621,-0.04407 -0.85912,-1.329726 -1.72827,-2.662229 -2.64365,-3.949021 -0.2034,0.0085 -0.4068,0.01714 -0.610207,0.02572 z"
       id="path6155"
       inkscape:connector-curvature="0" />
    <path
       style="opacity:1;fill:#d94b2b;fill-opacity:1;stroke:#d94b2b;stroke-width:0.01919805;stroke-miterlimit:4;stroke-dasharray:none;stroke-opacity:1"
       d="m 111.57333,70.134278 c -0.0859,0.06619 -0.11554,0.193687 -0.1813,0.280246 -0.57416,1.008299 -1.14951,2.017956 -1.70845,3.033626 0.20643,1.790188 0.39091,3.583022 0.61352,5.371254 -0.0107,0.05258 0.0607,0.132353 0.0952,0.06093 0.0751,-0.337038 0.10251,-0.685451 0.15934,-1.026679 0.34326,-2.424636 0.69669,-4.847954 1.01999,-7.275349 0.009,-0.142566 0.0526,-0.290311 0.0267,-0.431617 -0.005,-0.0083 -0.0151,-0.01349 -0.025,-0.0124 z"
       id="path6161"
       inkscape:connector-curvature="0" />
    <path
       style="opacity:1;fill:#d94b2b;fill-opacity:1;stroke:#d94b2b;stroke-width:0.01860395;stroke-miterlimit:4;stroke-dasharray:none;stroke-opacity:1"
       d="m 95.046602,92.220515 c -1.174133,0.184513 -2.343013,0.403544 -3.514783,0.603268 -1.433582,0.251752 -2.868362,0.497328 -4.30015,0.759 -0.04939,0.05692 0.06931,0.07315 0.103196,0.07794 1.753498,0.351993 3.510711,0.686135 5.26826,1.017296 0.08818,-0.01187 0.14097,-0.116937 0.212529,-0.165112 0.76186,-0.741225 1.515845,-1.49116 2.251842,-2.25809 0.01867,-0.01632 2.97e-4,-0.03891 -0.02089,-0.0343 z"
       id="path6165"
       inkscape:connector-curvature="0" />
    <path
       style="opacity:1;fill:#d94b2b;fill-opacity:1;stroke:#d94b2b;stroke-width:0.01842357;stroke-miterlimit:4;stroke-dasharray:none;stroke-opacity:1"
       d="m 95.322538,102.90306 c -0.09197,0.064 -0.05245,0.20907 -0.07783,0.3049 -0.104943,1.21143 -0.205322,2.42362 -0.27733,3.63749 -10e-4,0.0611 -0.02299,0.16626 0.07153,0.16223 0.982447,0.18405 1.969867,0.34265 2.955834,0.50718 0.761687,0.12027 1.523081,0.25119 2.287328,0.34968 0.075,-0.0116 0.0355,-0.0984 -0.0112,-0.12246 -1.537031,-1.53939 -3.094108,-3.05875 -4.644027,-4.58523 -0.09905,-0.082 -0.185911,-0.20324 -0.304353,-0.25382 z"
       id="path6167"
       inkscape:connector-curvature="0" />
    <path
       style="opacity:1;fill:#d94b2b;fill-opacity:1;stroke:#d94b2b;stroke-width:0.01921902;stroke-miterlimit:4;stroke-dasharray:none;stroke-opacity:1"
       d="m 111.12409,108.4195 c -0.0655,0.0475 -0.0121,0.15793 -0.0206,0.22732 0.12702,1.1214 0.28839,2.23882 0.44388,3.35658 0.0174,0.13553 0.20669,0.0431 0.30142,0.0701 0.24812,-0.005 0.5005,0.0128 0.74624,-0.0184 0.0223,-0.0845 -0.0567,-0.17439 -0.0732,-0.25886 -0.44806,-1.11841 -0.89691,-2.23709 -1.3599,-3.34917 -0.009,-0.0134 -0.02,-0.0292 -0.0379,-0.0275 z"
       id="path6169"
       inkscape:connector-curvature="0" />
    <path
       style="opacity:1;fill:#d94b2b;fill-opacity:1;stroke:#d94b2b;stroke-width:0.02547143;stroke-miterlimit:4;stroke-dasharray:none;stroke-opacity:1"
       d="m 95.809485,77.406036 c -0.325672,0.217395 -0.606159,0.503633 -0.909755,0.752466 -0.371054,0.325621 -0.749004,0.646019 -1.113772,0.977203 -0.281513,1.348185 -0.58831,2.691554 -0.848598,4.043922 -0.03116,0.05079 0.02066,0.152366 0.06978,0.08007 0.394645,-0.680312 0.713582,-1.402504 1.067626,-2.104584 0.582251,-1.209336 1.190319,-2.407194 1.732082,-3.635401 0.005,-0.03036 0.05654,-0.101406 0.0027,-0.113671 z"
       id="path6171"
       inkscape:connector-curvature="0" />
    <path
       style="opacity:1;fill:#d94b2b;fill-opacity:1;stroke:#d94b2b;stroke-width:0.02849067;stroke-miterlimit:4;stroke-dasharray:none;stroke-opacity:1"
       d="m 75.030557,80.58951 c -0.10441,0.03038 -0.02156,0.197653 -0.04804,0.274495 0.04509,1.769045 0.11697,3.537754 0.204186,5.305171 0.0031,0.114393 0.13262,0.05125 0.144121,-0.0276 0.894206,-1.469595 1.756526,-2.958858 2.619806,-4.446771 -0.02608,-0.09537 -0.190573,-0.09244 -0.264316,-0.148463 -0.86252,-0.334795 -1.722929,-0.683048 -2.608401,-0.952268 -0.01559,-0.0027 -0.03148,-0.0052 -0.04736,-0.0046 z"
       id="path6173"
       inkscape:connector-curvature="0" />
    <path
       style="opacity:1;fill:#d94b2b;fill-opacity:1;stroke:#d94b2b;stroke-width:0.01751635;stroke-miterlimit:4;stroke-dasharray:none;stroke-opacity:1"
       d="m 86.402207,81.786694 c -0.391508,0.0064 -0.786131,-0.0075 -1.175821,0.02105 -0.116208,0.554911 -0.193813,1.121138 -0.297972,1.679741 -0.267891,1.526161 -0.545366,3.051936 -0.818216,4.576402 0.03422,0.06139 0.07707,-0.03863 0.09176,-0.0677 0.753948,-1.486126 1.473972,-2.989306 2.210474,-4.484163 0.269209,-0.561756 0.557006,-1.115327 0.810687,-1.684125 1.37e-4,-0.06469 -0.107113,-0.02242 -0.148479,-0.03736 -0.224116,-0.004 -0.448285,-0.0038 -0.672429,-0.0038 z"
       id="path6175"
       inkscape:connector-curvature="0" />
    <path
       style="opacity:1;fill:#d94b2b;fill-opacity:1;stroke:#d94b2b;stroke-width:0.02415312;stroke-miterlimit:4;stroke-dasharray:none;stroke-opacity:1"
       d="m 92.325676,79.780422 c -0.624673,0.241875 -1.226392,0.543392 -1.827019,0.839923 -0.05191,0.03761 -0.197102,0.06508 -0.126883,0.15479 0.536228,1.09829 1.097496,2.184656 1.663682,3.267742 0.01034,0.04847 0.09185,0.139378 0.124356,0.06072 0.09128,-1.124024 0.113448,-2.252951 0.166154,-3.379389 0.003,-0.311898 0.04038,-0.6314 0.01999,-0.93954 -0.0058,-0.0049 -0.01331,-0.0051 -0.02029,-0.0043 z"
       id="path6177"
       inkscape:connector-curvature="0" />
    <path
       style="opacity:1;fill:#d94b2b;fill-opacity:1;stroke:#d94b2b;stroke-width:0.03588289;stroke-miterlimit:4;stroke-dasharray:none;stroke-opacity:1"
       d="m 92.438775,86.328129 c -2.023472,1.677504 -4.018461,3.392243 -6.016919,5.100469 -0.125072,0.137484 -0.33086,0.236375 -0.409131,0.40251 0.116482,0.07548 0.283039,-0.04209 0.414602,-0.03461 3.474525,-0.599478 6.952598,-1.183119 10.424904,-1.795914 0.0898,0.0076 0.162762,-0.08536 0.04112,-0.125396 -1.455676,-1.168976 -2.879661,-2.379015 -4.366765,-3.507811 -0.02738,-0.01385 -0.05466,-0.04287 -0.08781,-0.03925 z"
       id="path6179"
       inkscape:connector-curvature="0" />
    <path
       style="opacity:1;fill:#d94b2b;fill-opacity:1;stroke:#d94b2b;stroke-width:0.01512551;stroke-miterlimit:4;stroke-dasharray:none;stroke-opacity:1"
       d="m 93.965345,108.63742 c -0.243632,0.11235 -0.465676,0.26869 -0.702353,0.39523 -0.07057,0.0523 -0.170618,0.0808 -0.222372,0.15235 0.02612,0.20869 0.120149,0.40419 0.175366,0.60657 0.114676,0.33837 0.211545,0.68501 0.343068,1.01645 0.04356,0.0542 0.09201,-0.0223 0.08404,-0.0678 0.118366,-0.68642 0.229624,-1.37441 0.353182,-2.05918 0.0035,-0.0198 -0.0068,-0.0465 -0.03092,-0.0437 z"
       id="path6181"
       inkscape:connector-curvature="0" />
    <path
       style="opacity:1;fill:#d94b2b;fill-opacity:1;stroke:#d94b2b;stroke-width:0.01616339;stroke-miterlimit:4;stroke-dasharray:none;stroke-opacity:1"
       d="m 74.302755,66.027426 c -0.767759,0.0462 -1.535185,0.103835 -2.30101,0.17543 -0.08848,-0.0054 -0.03563,0.105849 -0.04055,0.154977 0.121156,1.025593 0.250673,2.050564 0.388558,3.073912 0.0431,0.07382 0.09609,-0.03154 0.116112,-0.06869 0.646101,-1.069574 1.279072,-2.147404 1.895381,-3.234433 0.01942,-0.02892 0.06898,-0.109318 -0.0019,-0.10214 -0.01885,-1.84e-4 -0.03769,7.61e-4 -0.05654,8.98e-4 z"
       id="path6183"
       inkscape:connector-curvature="0" />
    <path
       style="opacity:1;fill:#d94b2b;fill-opacity:1;stroke:#d94b2b;stroke-width:0.0127466;stroke-miterlimit:4;stroke-dasharray:none;stroke-opacity:1"
       d="m 91.298487,63.220354 c -0.149699,0.02601 -0.296272,0.08865 -0.437791,0.132668 -0.03262,-0.0061 -0.04605,0.03114 -0.08211,0.0235 -0.06734,0.01224 -0.1307,0.04617 -0.192844,0.05972 -0.04356,0.02724 -0.110717,0.02772 -0.160859,0.05186 -0.115651,0.04786 -0.241296,0.06758 -0.357992,0.11681 -0.03175,-8.48e-4 -0.05256,0.01662 -0.08106,0.02392 -0.01799,0.0026 -0.03845,0.0124 -0.05474,0.02178 -0.117323,0.02589 -0.234995,0.07268 -0.345304,0.110262 -0.03162,0.0015 -0.05425,0.02362 -0.08917,0.024 -0.09592,0.04547 -0.203443,0.06123 -0.303294,0.100319 -0.06607,0.01604 -0.133198,0.05474 -0.196587,0.06624 -0.02547,0.0016 -0.04204,0.01607 -0.06702,0.02033 -0.03387,0.01787 -0.0881,0.01781 -0.120298,0.04436 -0.03504,-0.004 -0.05541,0.03016 -0.09408,0.02858 -0.267795,0.08135 -0.537177,0.175189 -0.799229,0.264268 -0.02678,-0.0022 -0.04295,0.01683 -0.06916,0.0185 -0.01373,0.0093 -0.03718,0.01102 -0.05159,0.01885 -0.04188,0.02151 -0.09591,0.02008 -0.139367,0.04749 -0.03215,0.01166 -0.06978,0.01742 -0.101203,0.0351 -0.05148,0.01263 -0.09791,0.03746 -0.15164,0.04779 -0.330137,0.105785 -0.662134,0.215977 -0.987464,0.330496 -0.02826,-0.0068 -0.04563,0.01656 -0.07285,0.01737 -0.01321,0.01185 -0.0408,0.0045 -0.05061,0.02435 -0.153675,0.03856 -0.307045,0.09936 -0.453947,0.148354 -0.03122,-0.0039 -0.04673,0.02883 -0.08106,0.0237 -0.07779,0.01464 -0.14272,0.05942 -0.219829,0.07337 -0.05787,0.01995 -0.10791,0.05005 -0.167872,0.06115 -0.04138,0.01201 -0.06453,0.04988 -0.10847,0.0446 -0.03369,0.0229 -0.05123,0.08602 -0.0044,0.111483 0.133141,0.05131 0.283471,0.07909 0.426886,0.10279 0.479291,0.109791 0.96423,0.202947 1.444904,0.308029 0.122238,0.02276 0.242398,0.04857 0.363644,0.07459 0.09459,0.02141 0.192074,0.0409 0.287197,0.06047 0.1371,0.02925 0.272703,0.05892 0.410186,0.08595 0.03908,-0.0037 0.07208,0.02465 0.109263,0.01779 0.07164,0.03108 0.153226,0.03458 0.227968,0.05176 0.05923,0.0075 0.125088,0.04116 0.190031,0.03966 0.03735,0.01788 0.07393,0.0032 0.110038,0.02617 0.164031,0.03128 0.326067,0.07467 0.491839,0.100457 0.110094,0.02776 0.222209,0.04591 0.332707,0.07399 0.06707,0.01752 0.138709,0.01487 0.19939,0.04156 0.110894,0.0147 0.223185,0.05535 0.334621,0.06111 0.102854,0.04103 0.214874,0.0423 0.320355,0.0754 0.128886,0.02592 0.256929,0.04883 0.384566,0.07907 0.107979,0.02095 0.219868,0.05283 0.328301,0.06338 0.07359,0.02634 0.148573,0.02962 0.223761,0.05373 0.06413,0.01531 0.129514,0.01248 0.18866,0.04077 0.18722,0.0293 0.371653,0.08476 0.559134,0.10745 0.06,0.04404 0.170822,0.04057 0.195032,-0.04347 0.0204,-0.04159 -0.03281,-0.05769 -0.02327,-0.0999 -0.0138,-0.08136 -0.05741,-0.151984 -0.06462,-0.233249 -0.02508,-0.05036 -0.03431,-0.100627 -0.04696,-0.155796 -0.0093,-0.04049 -0.03763,-0.07293 -0.03292,-0.113924 -0.02951,-0.03961 -0.02056,-0.103185 -0.04536,-0.149373 -0.05944,-0.184587 -0.104592,-0.375802 -0.164772,-0.561077 -0.02624,-0.08242 -0.05235,-0.165129 -0.07729,-0.246515 -0.09455,-0.33679 -0.191215,-0.680246 -0.301685,-1.013728 -0.01372,-0.06242 -0.03761,-0.121106 -0.05096,-0.185058 -0.0357,-0.133715 -0.08752,-0.2659 -0.126472,-0.396481 -0.03231,-0.117276 -0.05787,-0.242207 -0.118081,-0.347991 -0.0096,-0.0076 -0.02237,-0.0095 -0.03428,-0.0088 z m -3.379167,1.096182 c -1.2e-5,-6.11e-4 0.0027,-0.0027 0,0 z m -1.504373,0.49764 c 4.08e-4,-0.0015 0.0049,-0.0047 0,0 z m 4.802928,1.752981 c -0.0015,6.12e-4 0.0023,-0.0015 0,0 z"
       id="path6185"
       inkscape:connector-curvature="0" />
    <path
       style="opacity:1;fill:#d94b2b;fill-opacity:1;stroke:#d94b2b;stroke-width:0.01488682;stroke-miterlimit:4;stroke-dasharray:none;stroke-opacity:1"
       d="m 94.286425,68.111238 c -0.07267,0.03063 -0.02646,0.134022 -0.02243,0.192526 0.06392,0.337829 0.146039,0.669762 0.211805,1.007143 0.0015,0.05087 0.03724,0.09899 0.03489,0.154101 0.07542,0.340387 0.148847,0.681328 0.222168,1.021463 0.03891,0.179076 0.08272,0.356654 0.115112,0.538193 0.0017,0.04808 0.03656,0.09335 0.03465,0.145583 0.02618,0.122627 0.05467,0.248855 0.07661,0.369787 0.02439,0.07313 0.03445,0.152045 0.05428,0.227373 0.0271,0.127126 0.05705,0.25815 0.08008,0.383452 0.03004,0.09073 0.04371,0.187994 0.06414,0.282239 0.0436,0.185447 0.08825,0.373549 0.120258,0.560843 0.0167,0.05455 0.0335,0.112211 0.04332,0.170822 0.05953,0.261479 0.117862,0.524532 0.176462,0.78682 0.0033,0.07151 0.03586,0.137313 0.04306,0.210161 0.0264,0.08545 0.0422,0.177367 0.05657,0.263018 0.04071,0.08849 0.02208,0.22434 0.1259,0.274041 0.09108,0.03183 0.184459,-0.01734 0.279133,-0.0077 1.301981,-0.09394 2.605226,-0.177802 3.90559,-0.287151 0.0596,7.13e-4 0.103027,-0.06418 0.0623,-0.114036 -0.11393,-0.162188 -0.26875,-0.292442 -0.39637,-0.444156 -1.728624,-1.880213 -3.443089,-3.77354 -5.177815,-5.648116 -0.0342,-0.02858 -0.06096,-0.08167 -0.109692,-0.08649 z"
       id="path6187"
       inkscape:connector-curvature="0" />
    <path
       style="opacity:1;fill:#b33e24;fill-opacity:1;stroke:#b33e24;stroke-width:0.04021805;stroke-miterlimit:4;stroke-dasharray:none;stroke-opacity:1"
       d="m 65.125046,51.173015 c -0.143277,0.04366 0.02691,0.231385 0.02961,0.320411 0.413224,1.028289 0.770948,2.079308 1.203869,3.099144 0.09228,0.08208 0.223804,-0.111573 0.32436,-0.129208 1.267546,-0.758599 2.545705,-1.502519 3.786678,-2.303747 0.115583,-0.04654 0.05614,-0.158233 -0.05216,-0.141705 -1.759064,-0.310231 -3.529234,-0.563217 -5.292364,-0.844895 z"
       id="path6007"
       inkscape:connector-curvature="0" />
    <path
       style="opacity:1;fill:#d94b2b;fill-opacity:1;stroke:#d94b2b;stroke-width:0.01749418;stroke-miterlimit:4;stroke-dasharray:none;stroke-opacity:1"
       d="m 107.99582,61.311263 c -0.0844,0.02208 -0.0581,0.124546 -0.0443,0.184816 0.14912,0.960534 0.31268,1.920912 0.46773,2.879965 0.28037,1.718501 0.56168,3.439279 0.84757,5.157769 0.0913,0.494393 0.15455,0.993595 0.25187,1.486515 0.006,0.06914 0.10624,0.110618 0.12687,0.02515 0.286,-0.504123 0.56472,-1.017027 0.85441,-1.516358 0.0461,-0.125459 0.13142,-0.239895 0.19486,-0.354222 0.0486,-0.1197 0.12651,-0.237262 0.19176,-0.345784 0.10864,-0.246667 0.26235,-0.484901 0.38666,-0.728731 0.0312,-0.08138 0.12746,-0.165398 0.0646,-0.255605 -0.0651,-0.148036 -0.13444,-0.298673 -0.20576,-0.441441 -0.0524,-0.0466 -0.0648,-0.125315 -0.0865,-0.18051 -0.0518,-0.02232 -0.033,-0.102268 -0.0816,-0.133633 0.005,-0.06223 -0.0679,-0.111583 -0.0824,-0.173757 -0.26219,-0.509 -0.52501,-1.018501 -0.76741,-1.537016 -0.0107,-0.03328 -0.0539,-0.05956 -0.0565,-0.09888 -0.032,-0.09297 -0.10593,-0.189906 -0.14853,-0.289288 -0.26371,-0.511574 -0.52376,-1.031929 -0.7749,-1.545825 -0.0591,-0.126093 -0.15228,-0.272209 -0.21669,-0.410664 -0.10689,-0.203832 -0.20833,-0.418423 -0.30813,-0.621491 -0.10316,-0.187721 -0.21686,-0.394465 -0.30749,-0.596203 -0.0416,-0.09256 -0.10863,-0.178801 -0.14927,-0.275292 -0.0501,-0.06802 -0.0537,-0.167807 -0.12059,-0.22015 -0.011,-0.0062 -0.0234,-0.01067 -0.0362,-0.0094 z"
       id="path6163"
       inkscape:connector-curvature="0" />
    <path
       style="opacity:1;fill:#d94b2b;fill-opacity:1;stroke:#d94b2b;stroke-width:0.01686616;stroke-miterlimit:4;stroke-dasharray:none;stroke-opacity:1"
       d="m 57.789455,58.829481 c -0.08235,1.195452 -0.136547,2.394561 -0.200503,3.591821 -0.0072,0.252644 -0.03575,0.509631 -0.0283,0.760019 0.05409,0.01845 0.07473,-0.07706 0.10871,-0.104283 0.450714,-0.63583 0.923306,-1.257175 1.364583,-1.899056 -0.373808,-0.748379 -0.756217,-1.494832 -1.145317,-2.236194 -0.02534,-0.02354 -0.05322,-0.14014 -0.09916,-0.112311 z"
       id="path6145-0"
       inkscape:connector-curvature="0" />
  </g>
</svg>
